<?xml version="1.0" encoding="UTF-8" standalone="no" ?>
<!DOCTYPE svg PUBLIC "-//W3C//DTD SVG 1.1//EN" "http://www.w3.org/Graphics/SVG/1.1/DTD/svg11.dtd">
<svg xmlns="http://www.w3.org/2000/svg" xmlns:xlink="http://www.w3.org/1999/xlink" version="1.1" width="140.22500000000002" height="155.11" xml:space="preserve">
<desc>Created with Fabric.js 1.6.0-rc.1</desc>
<defs></defs>
<g style="stroke: none; stroke-width: 1; stroke-dasharray: none; stroke-linecap: butt; stroke-linejoin: miter; stroke-miterlimit: 10; fill: none; fill-rule: nonzero; opacity: 1;" transform="translate(9.999999999999993 10) scale(2.29 2.29)" >
  <polygon points="51.5,14 37.5,0 6.5,0 6.5,58 51.5,58 " style="stroke: none; stroke-width: 1; stroke-dasharray: none; stroke-linecap: butt; stroke-linejoin: miter; stroke-miterlimit: 10; fill: #1ba94d; fill-rule: nonzero; opacity: 1;" transform="  matrix(1 0 0 1 0 0) "/>
  <polygon points="37.5,0 37.5,14 51.5,14 " style="stroke: none; stroke-width: 1; stroke-dasharray: none; stroke-linecap: butt; stroke-linejoin: miter; stroke-miterlimit: 10; fill: #fffff4; fill-rule: nonzero; opacity: 1;" transform="  matrix(1 0 0 1 0 0) "/>
  <path d="M 41.5 22 h -16 c -0.552 0 -1 -0.447 -1 -1 s 0.448 -1 1 -1 h 16 c 0.552 0 1 0.447 1 1 S 42.052 22 41.5 22 z" style="stroke: none; stroke-width: 1; stroke-dasharray: none; stroke-linecap: butt; stroke-linejoin: miter; stroke-miterlimit: 10; fill: #fffff4; fill-rule: nonzero; opacity: 1;" transform=" matrix(1 0 0 1 0 0) " stroke-linecap="round" />
  <path d="M 17.5 23 c -0.257 0 -0.514 -0.099 -0.708 -0.293 l -2 -2 c -0.391 -0.391 -0.391 -1.023 0 -1.414 s 1.023 -0.391 1.414 0 l 1.367 1.367 l 4.301 -3.441 c 0.43 -0.345 1.061 -0.275 1.405 0.156 c 0.345 0.432 0.275 1.061 -0.156 1.406 l -5 4 C 17.941 22.928 17.72 23 17.5 23 z" style="stroke: none; stroke-width: 1; stroke-dasharray: none; stroke-linecap: butt; stroke-linejoin: miter; stroke-miterlimit: 10; fill: #fffff4; fill-rule: nonzero; opacity: 1;" transform=" matrix(1 0 0 1 0 0) " stroke-linecap="round" />
  <path d="M 41.5 33 h -16 c -0.552 0 -1 -0.447 -1 -1 s 0.448 -1 1 -1 h 16 c 0.552 0 1 0.447 1 1 S 42.052 33 41.5 33 z" style="stroke: none; stroke-width: 1; stroke-dasharray: none; stroke-linecap: butt; stroke-linejoin: miter; stroke-miterlimit: 10; fill: #fffff4; fill-rule: nonzero; opacity: 1;" transform=" matrix(1 0 0 1 0 0) " stroke-linecap="round" />
  <path d="M 17.5 34 c -0.257 0 -0.514 -0.099 -0.708 -0.293 l -2 -2 c -0.391 -0.391 -0.391 -1.023 0 -1.414 s 1.023 -0.391 1.414 0 l 1.367 1.367 l 4.301 -3.441 c 0.43 -0.345 1.061 -0.275 1.405 0.156 c 0.345 0.432 0.275 1.061 -0.156 1.406 l -5 4 C 17.941 33.928 17.72 34 17.5 34 z" style="stroke: none; stroke-width: 1; stroke-dasharray: none; stroke-linecap: butt; stroke-linejoin: miter; stroke-miterlimit: 10; fill: #fffff4; fill-rule: nonzero; opacity: 1;" transform=" matrix(1 0 0 1 0 0) " stroke-linecap="round" />
  <path d="M 41.5 44 h -16 c -0.552 0 -1 -0.447 -1 -1 s 0.448 -1 1 -1 h 16 c 0.552 0 1 0.447 1 1 S 42.052 44 41.5 44 z" style="stroke: none; stroke-width: 1; stroke-dasharray: none; stroke-linecap: butt; stroke-linejoin: miter; stroke-miterlimit: 10; fill: #fffff4; fill-rule: nonzero; opacity: 1;" transform=" matrix(1 0 0 1 0 0) " stroke-linecap="round" />
  <path d="M 17.5 45 c -0.257 0 -0.514 -0.099 -0.708 -0.293 l -2 -2 c -0.391 -0.391 -0.391 -1.023 0 -1.414 s 1.023 -0.391 1.414 0 l 1.367 1.367 l 4.301 -3.441 c 0.43 -0.345 1.061 -0.275 1.405 0.156 c 0.345 0.432 0.275 1.061 -0.156 1.406 l -5 4 C 17.941 44.928 17.72 45 17.5 45 z" style="stroke: none; stroke-width: 1; stroke-dasharray: none; stroke-linecap: butt; stroke-linejoin: miter; stroke-miterlimit: 10; fill: #fffff4; fill-rule: nonzero; opacity: 1;" transform=" matrix(1 0 0 1 0 0) " stroke-linecap="round" />
</g>
</svg>